<?xml version="1.0" encoding="UTF-8"?>
<svg version="1.1" xmlns="http://www.w3.org/2000/svg" width="800" height="294">
<path d="M0 0 C264 0 528 0 800 0 C800 97.02 800 194.04 800 294 C536 294 272 294 0 294 C0 196.98 0 99.96 0 0 Z " fill="#111244" transform="translate(0,0)"/>
<path d="M0 0 C1.22138924 -0.01929817 1.22138924 -0.01929817 2.467453 -0.03898621 C3.3573291 -0.04279297 4.2472052 -0.04659973 5.16404724 -0.05052185 C6.10427231 -0.06205795 7.04449738 -0.07359406 8.01321411 -0.08547974 C11.13048452 -0.11984635 14.24755648 -0.1383046 17.36497498 -0.15379333 C18.43093336 -0.16069624 19.49689175 -0.16759914 20.5951519 -0.17471123 C26.24116545 -0.21057756 31.88707871 -0.23409752 37.53318787 -0.24778748 C43.35178647 -0.26430291 49.16916275 -0.3226719 54.98735142 -0.39093113 C59.47168729 -0.4358307 63.95573384 -0.44929075 68.44027519 -0.45440483 C70.5840144 -0.46227764 72.72774524 -0.48185924 74.8712635 -0.51362801 C95.08243633 -0.79330833 95.08243633 -0.79330833 102.19223022 5.19692993 C107.62836075 11.5326316 108.57678719 15.60269837 108.53538513 23.75587463 C108.54560699 24.79728607 108.55582886 25.83869751 108.56636047 26.91166687 C108.5941131 30.34711326 108.59224212 33.78175538 108.58763123 37.21730042 C108.59540756 39.61094968 108.60407741 42.00459619 108.61360168 44.39823914 C108.62851778 49.41337533 108.62794998 54.42822992 108.61741638 59.44337463 C108.60583054 65.86172526 108.63968239 72.27892092 108.68610573 78.69708061 C108.71560956 83.64031178 108.71731992 88.58326575 108.71108627 93.52656937 C108.71211134 95.89240429 108.72256145 98.25825501 108.74271011 100.62400436 C108.76746251 103.9369473 108.75384652 107.24765341 108.73069763 110.56056213 C108.75362885 112.01809906 108.75362885 112.01809906 108.77702332 113.50508118 C108.6706918 120.41052331 106.74871951 124.31343407 101.98606873 129.28761292 C95.88600949 134.94132636 90.63182435 135.58332389 82.63768005 135.54640198 C81.23688957 135.55165894 81.23688957 135.55165894 79.80780029 135.55702209 C76.72782411 135.56580938 73.6480784 135.56000224 70.56809998 135.55323792 C68.42769324 135.55458508 66.28728679 135.55652605 64.1468811 135.55903625 C59.66559429 135.56198316 55.18438728 135.55770248 50.70310974 135.5483551 C44.9492781 135.53694019 39.19563262 135.54353572 33.44180775 135.55550003 C29.0247252 135.56271268 24.60768711 135.5604338 20.19060326 135.55524445 C18.06823899 135.55390737 15.94587073 135.55555768 13.82351112 135.56020355 C10.86432246 135.56526124 7.90543958 135.55757015 4.9462738 135.54640198 C4.06364868 135.55045044 3.18102356 135.5544989 2.27165222 135.55867004 C-3.78539922 135.51614497 -3.78539922 135.51614497 -6.01393127 133.28761292 C-6.28114496 130.32092844 -6.42296764 127.44302946 -6.47901917 124.4702301 C-6.50340561 123.55608337 -6.52779205 122.64193665 -6.55291748 121.7000885 C-6.79110974 112.09865986 -6.89464148 102.49389256 -6.98878479 92.89015198 C-7.03765223 88.34150912 -7.12788439 83.79663242 -7.25538635 79.24952698 C-7.40928128 73.74834733 -7.4879238 68.25070812 -7.51496696 62.74748993 C-7.53748859 60.65971773 -7.58565373 58.57204503 -7.66101265 56.48551178 C-8.25029096 39.2827181 -8.25029096 39.2827181 -2.60545349 32.89857483 C0.54189964 29.80621564 3.90533618 27.08686754 7.51995182 24.55951309 C9.28188546 23.24912679 9.28188546 23.24912679 9.98606873 20.28761292 C8.92645935 20.29921448 7.86684998 20.31081604 6.77513123 20.32276917 C5.38711215 20.33214767 3.99909117 20.34124781 2.61106873 20.35011292 C1.91239685 20.35849182 1.21372498 20.36687073 0.49388123 20.37550354 C-4.78736877 20.40089417 -4.78736877 20.40089417 -7.01393127 19.28761292 C-7.09464915 16.49537219 -7.15428536 13.70544726 -7.20143127 10.91261292 C-7.22656799 10.11855042 -7.25170471 9.32448792 -7.27760315 8.50636292 C-7.30397533 6.43175144 -7.1687959 4.35660427 -7.01393127 2.28761292 C-3.98828939 0.27051832 -3.39292756 0.03478754 0 0 Z " fill="#F4F6F9" transform="translate(167.01393127441406,78.71238708496094)"/>
<path d="M0 0 C23.1 0 46.2 0 70 0 C70 31.35 70 62.7 70 95 C43.625 94.9375 43.625 94.9375 35.35791016 94.84741211 C33.16826757 94.86218884 30.9786438 94.88028184 28.7890625 94.90234375 C27.67426514 94.87789185 26.55946777 94.85343994 25.41088867 94.82824707 C17.43516749 94.96818744 13.55511784 97.14724098 7.93319702 102.77687073 C5.8780487 105.04490561 5.8780487 105.04490561 4 108 C2.68 108 1.36 108 0 108 C0 72.36 0 36.72 0 0 Z " fill="#0E0F40" transform="translate(183,99)"/>
<path d="M0 0 C1.26861877 -0.01929062 2.53723755 -0.03858124 3.84429932 -0.05845642 C5.21747808 -0.07326621 6.59066835 -0.08703923 7.96386719 -0.09985352 C9.01256611 -0.10971126 9.01256611 -0.10971126 10.08245087 -0.11976814 C13.78329955 -0.15224672 17.48412084 -0.1767255 21.18505859 -0.19628906 C24.22878297 -0.21408387 27.27157768 -0.24888868 30.31494141 -0.29882812 C34.0113468 -0.35938319 37.70689278 -0.38981066 41.40377045 -0.39946175 C42.80231515 -0.40795592 44.20084061 -0.42662305 45.59909821 -0.45620537 C54.80348717 -0.64046365 61.2352239 0.31883301 68.51074219 6.20874023 C74.12002941 11.95483934 73.79486664 17.81111835 73.94824219 25.45874023 C73.99400391 26.37526367 74.03976562 27.29178711 74.08691406 28.23608398 C74.20410596 35.37969446 72.35718297 39.05811173 67.51074219 44.20874023 C67.03419189 44.74241211 66.5576416 45.27608398 66.06665039 45.82592773 C64.73380444 47.28278693 63.34149633 48.68454048 61.94824219 50.08374023 C61.03945313 51.00928711 60.13066406 51.93483398 59.19433594 52.88842773 C55.16661502 56.37091132 51.72706695 57.46308817 46.44506836 57.43579102 C45.46442917 57.43563995 44.48378998 57.43548889 43.47343445 57.43533325 C42.42742569 57.42501068 41.38141693 57.41468811 40.30371094 57.40405273 C38.68291374 57.39980789 38.68291374 57.39980789 37.02937317 57.39547729 C33.58554918 57.38430156 30.14198729 57.35920142 26.69824219 57.33374023 C24.36035532 57.32370708 22.02246438 57.31458181 19.68457031 57.30639648 C13.95987184 57.28437074 8.23532574 57.25091891 2.51074219 57.20874023 C3.26797066 52.31871112 4.85373866 50.40368766 8.44824219 46.95874023 C9.79208984 45.65163086 9.79208984 45.65163086 11.16308594 44.31811523 C15.23283535 40.66143523 18.76731034 40.9992452 24.01855469 40.89233398 C24.8591745 40.87155289 25.69979431 40.85077179 26.56588745 40.82936096 C29.25575454 40.76388585 31.94572061 40.70499004 34.63574219 40.64624023 C36.45736708 40.60305307 38.2789819 40.55943872 40.10058594 40.51538086 C44.57053796 40.40740116 49.04056326 40.30831294 53.51074219 40.20874023 C53.51074219 32.61874023 53.51074219 25.02874023 53.51074219 17.20874023 C34.70074219 16.87874023 15.89074219 16.54874023 -3.48925781 16.20874023 C-3.15925781 36.99874023 -2.82925781 57.78874023 -2.48925781 79.20874023 C2.745625 79.17393555 7.98050781 79.13913086 13.37402344 79.10327148 C16.68718561 79.08794583 20.00030418 79.07350422 23.31347656 79.06225586 C28.57422951 79.04431088 33.83482606 79.02306479 39.09545898 78.98242188 C43.33593143 78.94986499 47.5762362 78.931895 51.81682396 78.92410851 C53.43599272 78.91855837 55.05515213 78.90772045 56.67424965 78.89155006 C58.93936742 78.86982406 61.20378922 78.8667712 63.46899414 78.86816406 C64.75916946 78.86150223 66.04934479 78.85484039 67.37861633 78.84797668 C70.51074219 79.20874023 70.51074219 79.20874023 72.42814636 80.58378601 C73.92942988 82.8371819 73.87577809 84.45882681 73.82324219 87.14624023 C73.819375 88.00088867 73.81550781 88.85553711 73.81152344 89.73608398 C73.49647252 92.326048 72.72335149 93.9280451 71.51074219 96.20874023 C61.461745 96.27835502 51.41280551 96.33160976 41.36361599 96.36417675 C36.69699502 96.37980997 32.03053946 96.40100532 27.36401367 96.43505859 C22.85768579 96.46773579 18.35151667 96.48561088 13.84507942 96.49337196 C12.12873906 96.49890049 10.41240705 96.50969635 8.69613457 96.5259304 C6.28575976 96.54781614 3.87603489 96.55070256 1.46557617 96.54931641 C0.7613855 96.56010223 0.05719482 96.57088806 -0.66833496 96.58200073 C-7.12828422 96.54199515 -11.41510719 94.60480315 -16.73925781 91.02124023 C-23.80697079 83.79289741 -22.9345513 74.73352178 -22.88769531 65.23608398 C-22.88971997 63.7845495 -22.89263467 62.33301602 -22.89639282 60.88148499 C-22.90079637 57.85139198 -22.89444829 54.82156571 -22.88037109 51.79150391 C-22.8632647 47.92250603 -22.87314162 44.05413196 -22.89108849 40.18515682 C-22.90196688 37.19185243 -22.89846177 34.19869418 -22.89070511 31.20538521 C-22.88871508 29.77934252 -22.89111996 28.35328622 -22.89814377 26.92725945 C-22.95777035 11.42470463 -22.95777035 11.42470463 -17.87597656 5.24780273 C-17.31523438 4.78116211 -16.75449219 4.31452148 -16.17675781 3.83374023 C-15.62375 3.35163086 -15.07074219 2.86952148 -14.50097656 2.37280273 C-10.15454517 -0.1422197 -4.90577881 0.07009081 0 0 Z " fill="#F7F8FA" transform="translate(575.4892578125,117.791259765625)"/>
<path d="M0 0 C1.04285156 -0.01675781 2.08570313 -0.03351563 3.16015625 -0.05078125 C6.35167739 0.3666751 6.99970138 0.83756676 8.9375 3.3125 C9.21832304 6.37117042 9.31606838 9.22387553 9.27807617 12.28198242 C9.27873329 13.65789299 9.27873329 13.65789299 9.27940369 15.06159973 C9.27731158 18.09727166 9.25396051 21.13239315 9.23046875 24.16796875 C9.2248743 26.27118122 9.22060349 28.37439759 9.21760559 30.47761536 C9.20614497 36.01629407 9.17666719 41.5547372 9.14349365 47.09332275 C9.11281907 52.74382337 9.09910584 58.39436201 9.08398438 64.04492188 C9.05179876 75.13421816 9.0005876 86.2233395 8.9375 97.3125 C6.14557795 97.36630578 3.3546859 97.40607669 0.5625 97.4375 C-0.2315625 97.45425781 -1.025625 97.47101563 -1.84375 97.48828125 C-3.91742015 97.50585473 -5.99133241 97.41585168 -8.0625 97.3125 C-10.0625 95.3125 -10.0625 95.3125 -10.2578125 93.1484375 C-10.23460937 92.33632812 -10.21140625 91.52421875 -10.1875 90.6875 C-10.16945313 89.87023437 -10.15140625 89.05296875 -10.1328125 88.2109375 C-10.10960937 87.58445312 -10.08640625 86.95796875 -10.0625 86.3125 C-13.85655854 86.85331975 -15.21599396 88.30086854 -17.5625 91.25 C-20.39435807 94.79625863 -22.63472123 97.01153195 -27.27398682 97.58665466 C-28.47689362 97.60261436 -28.47689362 97.60261436 -29.70410156 97.61889648 C-30.61895325 97.63488388 -31.53380493 97.65087128 -32.47637939 97.66734314 C-33.45870544 97.67270584 -34.44103149 97.67806854 -35.453125 97.68359375 C-36.47170593 97.69262222 -37.49028687 97.7016507 -38.53973389 97.71095276 C-40.69491641 97.72545408 -42.85014295 97.7343417 -45.00537109 97.73803711 C-48.28689775 97.74990739 -51.56652779 97.79907359 -54.84765625 97.84960938 C-56.94530336 97.8590771 -59.04296198 97.86631046 -61.140625 97.87109375 C-62.11485413 97.89062607 -63.08908325 97.91015839 -64.09283447 97.93028259 C-71.88522849 97.87921836 -76.22345311 95.892753 -81.8651886 90.6313324 C-88.03861495 83.29400239 -86.83338742 73.77011849 -86.68359375 64.75 C-86.6749288 62.94922899 -86.66878906 61.14844423 -86.66505432 59.34765625 C-86.6479072 54.63269954 -86.59388188 49.91884755 -86.53277588 45.20428467 C-86.48897857 41.34008963 -86.47158974 37.47598287 -86.45550442 33.61158752 C-86.4359556 29.01182786 -86.40538608 24.4121712 -86.37109375 19.8125 C-86.36466795 18.93189911 -86.35824215 18.05129822 -86.35162163 17.14401245 C-86.33074374 14.66881635 -86.30245694 12.19383479 -86.27124023 9.71875 C-86.26540924 8.97907486 -86.25957825 8.23939972 -86.25357056 7.47731018 C-86.17785203 2.42785203 -86.17785203 2.42785203 -85.0625 1.3125 C-82.21914952 1.21263025 -79.40552837 1.17372119 -76.5625 1.1875 C-75.76457031 1.18363281 -74.96664063 1.17976563 -74.14453125 1.17578125 C-68.18910767 1.18589233 -68.18910767 1.18589233 -67.0625 2.3125 C-66.93760302 4.71500532 -66.8764921 7.09022785 -66.85717773 9.49438477 C-66.84727814 10.24555573 -66.83737854 10.99672668 -66.82717896 11.7706604 C-66.79547454 14.26504312 -66.77077141 16.75944491 -66.74609375 19.25390625 C-66.72553193 20.97884123 -66.70453567 22.70377108 -66.68312073 24.42869568 C-66.62782029 28.97756814 -66.57844631 33.52648667 -66.53027344 38.07543945 C-66.47130412 43.52867442 -66.40503248 48.98182487 -66.33997345 54.43498993 C-66.24186368 62.72744184 -66.15307634 71.01994695 -66.0625 79.3125 C-47.5825 79.6425 -29.1025 79.9725 -10.0625 80.3125 C-10.0625 54.5725 -10.0625 28.8325 -10.0625 2.3125 C-6.07151793 0.31700896 -4.32535374 0.01607938 0 0 Z " fill="#F7F8FA" transform="translate(404.0625,116.6875)"/>
<path d="M0 0 C0.64417374 -0.00014603 1.28834747 -0.00029205 1.95204163 -0.0004425 C4.0784951 0.00025344 6.20486068 0.00803091 8.33129883 0.01586914 C9.80674695 0.01773445 11.28219569 0.01915782 12.75764465 0.02015686 C16.63908603 0.02397313 20.52048993 0.03379583 24.4019165 0.04486084 C28.36339816 0.05509408 32.32488588 0.05965858 36.28637695 0.06469727 C44.05787841 0.07541889 51.82934899 0.09248464 59.60083008 0.11352539 C59.60083008 4.11352539 59.60083008 4.11352539 58.09692383 5.85961914 C57.41758789 6.4177832 56.73825195 6.97594727 56.03833008 7.55102539 C55.04639648 8.3844043 55.04639648 8.3844043 54.03442383 9.23461914 C52.82979492 10.16467773 52.82979492 10.16467773 51.60083008 11.11352539 C50.61276367 11.96720703 49.62469727 12.82088867 48.60668945 13.70043945 C43.96453973 16.98742302 39.59626773 16.75276726 34.07348633 16.60180664 C33.19591675 16.59677124 32.31834717 16.59173584 31.41418457 16.58654785 C28.16356321 16.56056086 24.9134108 16.49075434 21.66333008 16.42602539 C14.38270508 16.32290039 7.10208008 16.21977539 -0.39916992 16.11352539 C-0.06916992 36.57352539 0.26083008 57.03352539 0.60083008 78.11352539 C18.23702112 78.28401308 18.23702112 78.28401308 35.87353516 78.41137695 C38.08083194 78.44073497 40.28810993 78.47155864 42.49536133 78.50415039 C44.22127502 78.50584229 44.22127502 78.50584229 45.98205566 78.50756836 C47.07804077 78.5273877 48.17402588 78.54720703 49.30322266 78.56762695 C50.25586502 78.5765094 51.20850739 78.58539185 52.1900177 78.59454346 C54.60083008 79.11352539 54.60083008 79.11352539 56.42021179 80.72576904 C57.9926578 83.90598231 57.89422583 86.33366708 57.78833008 89.86352539 C57.74772461 91.61922852 57.74772461 91.61922852 57.70629883 93.41040039 C57.67149414 94.30243164 57.63668945 95.19446289 57.60083008 96.11352539 C49.52490851 96.22974959 41.44934058 96.31840609 33.37278748 96.37258625 C29.62183945 96.39859986 25.87146665 96.43384388 22.12084961 96.49072266 C18.496281 96.54534132 14.87226307 96.57500778 11.24731445 96.58791161 C9.86945942 96.5970985 8.49163207 96.61503827 7.11401367 96.64217567 C-1.06166674 96.79671472 -7.05483377 96.60298042 -13.39916992 91.11352539 C-14.18291992 90.45352539 -14.96666992 89.79352539 -15.77416992 89.11352539 C-19.24090864 84.84677005 -19.65273379 80.79802193 -19.67382812 75.41479492 C-19.67893906 74.76206604 -19.68404999 74.10933716 -19.6893158 73.43682861 C-19.70315797 71.28990376 -19.70225895 69.14330193 -19.69995117 66.99633789 C-19.70384146 65.49567548 -19.70817682 63.99501416 -19.7129364 62.49435425 C-19.72038734 59.35223824 -19.72011583 56.21023461 -19.71484375 53.06811523 C-19.70905482 49.0544577 -19.72597126 45.0412625 -19.74918842 41.02768135 C-19.76396849 37.92887715 -19.76479161 34.83018315 -19.7616787 31.73134995 C-19.7621899 30.25226807 -19.76738981 28.7731797 -19.77749062 27.29413223 C-19.78991951 25.21947033 -19.78302577 23.14569417 -19.77148438 21.07104492 C-19.7721138 19.89365753 -19.77274323 18.71627014 -19.77339172 17.50320435 C-19.25131813 12.77429264 -17.87183909 8.79370703 -14.68041992 5.15258789 C-14.09260742 4.68594727 -13.50479492 4.21930664 -12.89916992 3.73852539 C-12.31135742 3.25641602 -11.72354492 2.77430664 -11.11791992 2.27758789 C-7.51033863 -0.16572853 -4.22154459 -0.00804104 0 0 Z " fill="#F3F4F8" transform="translate(471.399169921875,117.886474609375)"/>
<path d="M0 0 C1.051875 -0.02578125 2.10375 -0.0515625 3.1875 -0.078125 C6 0.25 6 0.25 7.65323353 1.52492237 C10.04072891 4.58307311 9.38684277 8.49534556 9.34057617 12.21948242 C9.34123329 13.59539299 9.34123329 13.59539299 9.34190369 14.99909973 C9.33981158 18.03477166 9.31646051 21.06989315 9.29296875 24.10546875 C9.2873743 26.20868122 9.28310349 28.31189759 9.28010559 30.41511536 C9.26864497 35.95379407 9.23916719 41.4922372 9.20599365 47.03082275 C9.17531907 52.68132337 9.16160584 58.33186201 9.14648438 63.98242188 C9.11429876 75.07171816 9.0630876 86.1608395 9 97.25 C6.18743719 97.27684312 3.37512759 97.29676188 0.5625 97.3125 C-0.23994141 97.32087891 -1.04238281 97.32925781 -1.86914062 97.33789062 C-3.91295221 97.3465143 -5.95683902 97.3022815 -8 97.25 C-11.4711328 93.7788672 -10.02309191 82.84936508 -10.04666138 77.85821533 C-10.03434243 72.95955138 -9.95718041 68.06203436 -9.87890625 63.1640625 C-9.85453992 61.36803876 -9.83069992 59.5720078 -9.80735779 57.77597046 C-9.74516352 53.09728648 -9.67592142 48.41873365 -9.60510254 43.74017334 C-9.53382693 38.94663355 -9.46936711 34.15300233 -9.40429688 29.359375 C-9.27612079 19.98948281 -9.1404829 10.6197152 -9 1.25 C-5.80693695 0.18564565 -3.35556004 0.04934647 0 0 Z " fill="#F7F8FB" transform="translate(404,116.75)"/>
<path d="M0 0 C0.33 0 0.66 0 1 0 C1 5.28 1 10.56 1 16 C2.48097168 15.99419922 3.96194336 15.98839844 5.48779297 15.98242188 C23.3022156 15.93562187 41.10553448 16.16744565 58.91680908 16.46356201 C62.66586888 16.52542632 66.41496732 16.58485669 70.1640625 16.64453125 C77.44274675 16.76072555 84.72138601 16.87947614 92 17 C92 17.33 92 17.66 92 18 C69.23 18 46.46 18 23 18 C23 53.64 23 89.28 23 126 C24.485 126.495 24.485 126.495 26 127 C24.68 127 23.36 127 22 127 C22 91.69 22 56.38 22 20 C20.35 20 18.7 20 17 20 C17 19.34 17 18.68 17 18 C15.94039062 18.01160156 14.88078125 18.02320312 13.7890625 18.03515625 C12.40104342 18.04453476 11.01302245 18.05363489 9.625 18.0625 C8.92632812 18.07087891 8.22765625 18.07925781 7.5078125 18.08789062 C2.2265625 18.11328125 2.2265625 18.11328125 0 17 C0 11.39 0 5.78 0 0 Z " fill="#7C7C93" transform="translate(160,81)"/>
<path d="M0 0 C0.99 0.495 0.99 0.495 2 1 C2.33 26.41 2.66 51.82 3 78 C21.48 78.33 39.96 78.66 59 79 C59 53.26 59 27.52 59 1 C59.33 1 59.66 1 60 1 C60 31.69 60 62.38 60 94 C59.67 94 59.34 94 59 94 C59 91.03 59 88.06 59 85 C58.01 84.67 57.02 84.34 56 84 C56.495 82.515 56.495 82.515 57 81 C56.31317642 80.98969254 55.62635284 80.97938507 54.91871643 80.96876526 C47.79784143 80.86094405 40.67709926 80.74632717 33.55639648 80.62768555 C30.89561735 80.5842582 28.23480893 80.5425891 25.57397461 80.50268555 C21.75886185 80.44517128 17.94389758 80.38142332 14.12890625 80.31640625 C12.93100967 80.29969376 11.7331131 80.28298126 10.49891663 80.26576233 C9.3978508 80.24581711 8.29678497 80.22587189 7.16235352 80.20532227 C6.18750504 80.18977798 5.21265656 80.1742337 4.20826721 80.15821838 C2 80 2 80 1 79 C0.87504973 76.536507 0.81397797 74.09963233 0.79467773 71.63452148 C0.78477814 70.86384338 0.77487854 70.09316528 0.76467896 69.2991333 C0.73297299 66.73981853 0.7082708 64.18048517 0.68359375 61.62109375 C0.66303206 59.85131841 0.64203581 58.08154806 0.62062073 56.31178284 C0.56531891 51.6445418 0.51594554 46.97725586 0.46777344 42.30993652 C0.41761747 37.55098454 0.36190066 32.79209809 0.30664062 28.03320312 C0.19895992 18.68885802 0.09753712 9.3444561 0 0 Z " fill="#A6A7C0" transform="translate(335,118)"/>
<path d="M0 0 C0.66 0.33 1.32 0.66 2 1 C0.71937515 2.7074998 -0.61767557 4.37373596 -2 6 C-2.66 6 -3.32 6 -4 6 C-3.7215625 6.9590625 -3.7215625 6.9590625 -3.4375 7.9375 C-3.293125 8.618125 -3.14875 9.29875 -3 10 C-3.33 10.33 -3.66 10.66 -4 11 C-4.09436529 13.23929886 -4.11742327 15.4816175 -4.11352539 17.72290039 C-4.11374443 18.77650505 -4.11374443 18.77650505 -4.1139679 19.85139465 C-4.11326872 22.18351278 -4.10547617 24.515552 -4.09765625 26.84765625 C-4.09579208 28.46048438 -4.09436818 30.07331307 -4.09336853 31.68614197 C-4.08954323 35.93915357 -4.07971285 40.19213124 -4.06866455 44.44512939 C-4.05845069 48.7817743 -4.05387096 53.11842467 -4.04882812 57.45507812 C-4.03809059 65.97006769 -4.02101403 74.48502963 -4 83 C-7.57620041 79.42379959 -7.13198126 75.47613571 -7.16113281 70.59838867 C-7.17074036 69.29991501 -7.1803479 68.00144135 -7.19024658 66.66362 C-7.19509513 65.24840471 -7.19937382 63.83318737 -7.203125 62.41796875 C-7.20888152 60.96071879 -7.21463919 59.50346883 -7.22039795 58.04621887 C-7.23089175 54.99231617 -7.2367449 51.93843967 -7.24023438 48.88452148 C-7.24571352 44.98408286 -7.26973566 41.08399429 -7.29820633 37.18366528 C-7.31689228 34.17323313 -7.32204148 31.16288429 -7.32357025 28.15239906 C-7.32658425 26.71517334 -7.33457022 25.27794865 -7.34775543 23.84078026 C-7.48371101 7.88184941 -7.48371101 7.88184941 -1.8125 1.5625 C-1.214375 1.046875 -0.61625 0.53125 0 0 Z " fill="#C1C2D8" transform="translate(560,121)"/>
<path d="M0 0 C0.9662606 -0.00043808 0.9662606 -0.00043808 1.95204163 -0.00088501 C4.07859831 0.00050694 6.20480344 0.0160614 8.33129883 0.03173828 C9.80674549 0.0354689 11.28219463 0.03831564 12.75764465 0.04031372 C16.6391383 0.04794637 20.52048204 0.06759161 24.4019165 0.08972168 C28.36338269 0.11018809 32.32487312 0.11931713 36.28637695 0.12939453 C44.05792964 0.15083792 51.82935884 0.18496933 59.60083008 0.22705078 C59.60083008 1.54705078 59.60083008 2.86705078 59.60083008 4.22705078 C58.94083008 4.22705078 58.28083008 4.22705078 57.60083008 4.22705078 C57.10583008 3.23705078 57.10583008 3.23705078 56.60083008 2.22705078 C34.82083008 2.22705078 13.04083008 2.22705078 -9.39916992 2.22705078 C-5.81400964 -0.16305607 -4.25650025 -0.01621524 0 0 Z " fill="#DAD7E8" transform="translate(471.399169921875,117.77294921875)"/>
<path d="M0 0 C0.33 0.99 0.66 1.98 1 3 C-0.62339805 4.70884005 -2.29319053 6.37446717 -4 8 C-4.66 8 -5.32 8 -6 8 C-6 8.99 -6 9.98 -6 11 C9.51 11 25.02 11 41 11 C41 11.33 41 11.66 41 12 C24.83 12 8.66 12 -8 12 C-7.01174407 7.05872037 -6.82992043 6.33319895 -3.4375 3.1875 C-2.79683594 2.58292969 -2.15617188 1.97835937 -1.49609375 1.35546875 C-1.00238281 0.90816406 -0.50867188 0.46085938 0 0 Z " fill="#C9CBDF" transform="translate(586,163)"/>
<path d="M0 0 C0.33 0 0.66 0 1 0 C1 5.28 1 10.56 1 16 C9.58 16 18.16 16 27 16 C27 16.33 27 16.66 27 17 C25.35 17 23.7 17 22 17 C22 17.99 22 18.98 22 20 C20.35 20 18.7 20 17 20 C17 19.34 17 18.68 17 18 C15.94039062 18.01160156 14.88078125 18.02320312 13.7890625 18.03515625 C12.40104342 18.04453476 11.01302245 18.05363489 9.625 18.0625 C8.92632812 18.07087891 8.22765625 18.07925781 7.5078125 18.08789062 C2.2265625 18.11328125 2.2265625 18.11328125 0 17 C0 11.39 0 5.78 0 0 Z " fill="#A4A5B7" transform="translate(160,81)"/>
<path d="M0 0 C1.5003479 0.07069702 1.5003479 0.07069702 3.03100586 0.14282227 C4.1105957 0.19116211 5.19018555 0.23950195 6.30249023 0.28930664 C7.43879883 0.34538086 8.57510742 0.40145508 9.74584961 0.45922852 C11.45611328 0.53753906 11.45611328 0.53753906 13.20092773 0.61743164 C16.02864984 0.74757785 18.85605961 0.8825573 21.68334961 1.02172852 C21.68334961 1.35172852 21.68334961 1.68172852 21.68334961 2.02172852 C12.11334961 2.35172852 2.54334961 2.68172852 -7.31665039 3.02172852 C-7.64665039 2.36172852 -7.97665039 1.70172852 -8.31665039 1.02172852 C-7.11008789 1.05266602 -7.11008789 1.05266602 -5.87915039 1.08422852 C-2.9137594 1.01190191 -2.8787557 0.02700066 0 0 Z " fill="#0F0C38" transform="translate(579.316650390625,113.978271484375)"/>
<path d="M0 0 C0.66 0 1.32 0 2 0 C0.65864082 2.88711594 -0.84943995 5.29413963 -2.875 7.75 C-3.36742187 8.36359375 -3.85984375 8.9771875 -4.3671875 9.609375 C-6 11 -6 11 -10 11 C-10 9.35 -10 7.7 -10 6 C-7.525 6.495 -7.525 6.495 -5 7 C-4.67 5.68 -4.34 4.36 -4 3 C-2.68 2.67 -1.36 2.34 0 2 C0 1.34 0 0.68 0 0 Z " fill="#1A1440" transform="translate(193,196)"/>
<path d="M0 0 C0.33 0 0.66 0 1 0 C1 3.3 1 6.6 1 10 C2.32 9.67 3.64 9.34 5 9 C7.25916114 9.23737563 9.5105321 9.55679046 11.75 9.9375 C12.92046875 10.13214844 14.0909375 10.32679688 15.296875 10.52734375 C16.18890625 10.68332031 17.0809375 10.83929688 18 11 C18 11.33 18 11.66 18 12 C12.06 12 6.12 12 0 12 C0 8.04 0 4.08 0 0 Z " fill="#0C0737" transform="translate(338,184)"/>
<path d="M0 0 C0.66 0.33 1.32 0.66 2 1 C0.71937515 2.7074998 -0.61767557 4.37373596 -2 6 C-2.66 6 -3.32 6 -4 6 C-3.7215625 6.9590625 -3.7215625 6.9590625 -3.4375 7.9375 C-3.293125 8.618125 -3.14875 9.29875 -3 10 C-3.33 10.33 -3.66 10.66 -4 11 C-4.15582303 12.34015221 -4.25044142 13.68758903 -4.31640625 15.03515625 C-4.37924805 16.24848633 -4.37924805 16.24848633 -4.44335938 17.48632812 C-4.48267578 18.33646484 -4.52199219 19.18660156 -4.5625 20.0625 C-4.60568359 20.91650391 -4.64886719 21.77050781 -4.69335938 22.65039062 C-4.79976702 24.76672037 -4.90041731 26.88333813 -5 29 C-5.33 29 -5.66 29 -6 29 C-6.05834353 25.77090994 -6.09371115 22.54195662 -6.125 19.3125 C-6.15013672 17.94448242 -6.15013672 17.94448242 -6.17578125 16.54882812 C-6.2193768 10.55443995 -6.09555022 6.28045171 -1.875 1.6875 C-1.25625 1.130625 -0.6375 0.57375 0 0 Z " fill="#E4E5F5" transform="translate(560,121)"/>
<path d="M0 0 C0.33 0.66 0.66 1.32 1 2 C0.06421005 4.35981813 -0.93347808 6.69631264 -2 9 C-3.65 8.67 -5.3 8.34 -7 8 C-7 8.66 -7 9.32 -7 10 C-8.32 9.67 -9.64 9.34 -11 9 C-10.37351562 8.51789063 -9.74703125 8.03578125 -9.1015625 7.5390625 C-7.87566406 6.59160156 -7.87566406 6.59160156 -6.625 5.625 C-5.81289063 4.99851563 -5.00078125 4.37203125 -4.1640625 3.7265625 C-1.95776805 2.03226506 -1.95776805 2.03226506 0 0 Z " fill="#2E2A51" transform="translate(527,124)"/>
<path d="M0 0 C1.73149061 3.46298121 2.27336991 4.92684293 2.5625 8.5625 C2.79042405 11.32084619 3.11350888 13.34052665 4 16 C2.68 16 1.36 16 0 16 C0 10.72 0 5.44 0 0 Z " fill="#080732" transform="translate(573,180)"/>
<path d="M0 0 C0.66 0 1.32 0 2 0 C2 2.31 2 4.62 2 7 C1.34 7 0.68 7 0 7 C-0.33 7.99 -0.66 8.98 -1 10 C-1.66 10 -2.32 10 -3 10 C-2.25 2.25 -2.25 2.25 0 0 Z " fill="#050635" transform="translate(391,204)"/>
<path d="M0 0 C1.34416065 3.05491056 0.90724242 4.29373235 -0.125 7.5625 C-2.08762521 11.16064621 -3.24979615 12.46145483 -7 14 C-7.66 13.67 -8.32 13.34 -9 13 C-8.60167969 12.56429687 -8.20335937 12.12859375 -7.79296875 11.6796875 C-4.51063169 7.99005314 -2.00600254 4.56922802 0 0 Z " fill="#403E5E" transform="translate(275,197)"/>
<path d="M0 0 C0.66 0.33 1.32 0.66 2 1 C1.04882866 2.1725131 0.08882991 3.33787015 -0.875 4.5 C-1.40867188 5.1496875 -1.94234375 5.799375 -2.4921875 6.46875 C-2.98976562 6.9740625 -3.48734375 7.479375 -4 8 C-4.66 8 -5.32 8 -6 8 C-6.33 8.99 -6.66 9.98 -7 11 C-7.66 11 -8.32 11 -9 11 C-7.59155282 7.78475695 -5.89655214 5.67816132 -3.375 3.25 C-2.74335938 2.63640625 -2.11171875 2.0228125 -1.4609375 1.390625 C-0.73777344 0.70226562 -0.73777344 0.70226562 0 0 Z " fill="#C8C7D9" transform="translate(196,196)"/>
<path d="M0 0 C0.33 0.66 0.66 1.32 1 2 C1.639375 2.309375 2.27875 2.61875 2.9375 2.9375 C5 4 5 4 7 7 C5.35 7.33 3.7 7.66 2 8 C2 6.68 2 5.36 2 4 C1.34 3.67 0.68 3.34 0 3 C0 2.01 0 1.02 0 0 Z " fill="#292F4F" transform="translate(555,204)"/>
<path d="M0 0 C2.475 0.495 2.475 0.495 5 1 C4.67 2.32 4.34 3.64 4 5 C2.68 5 1.36 5 0 5 C0 3.35 0 1.7 0 0 Z " fill="#161231" transform="translate(183,202)"/>
<path d="M0 0 C0.33 0.99 0.66 1.98 1 3 C-0.98 4.32 -2.96 5.64 -5 7 C-5.33 5.68 -5.66 4.36 -6 3 C-4.02 2.01 -2.04 1.02 0 0 Z " fill="#1C153F" transform="translate(590,157)"/>
<path d="M0 0 C0.66 0.33 1.32 0.66 2 1 C-0.38957269 4.24299151 -2.2047869 6.50902342 -6 8 C-4.55746343 4.63408134 -2.66735273 2.48952921 0 0 Z " fill="#B0AFC6" transform="translate(460,120)"/>
<path d="M0 0 C0.33 0 0.66 0 1 0 C1 1.98 1 3.96 1 6 C0.67 6 0.34 6 0 6 C-0.33 7.65 -0.66 9.3 -1 11 C-1.33 11 -1.66 11 -2 11 C-2 8.03 -2 5.06 -2 2 C-1.34 2 -0.68 2 0 2 C0 1.34 0 0.68 0 0 Z " fill="#0B0735" transform="translate(532,201)"/>
<path d="M0 0 C0.66 0.33 1.32 0.66 2 1 C-1.625 5.875 -1.625 5.875 -5 7 C-3.70700306 4.11562221 -2.34058637 2.12780579 0 0 Z " fill="#B5B6C8" transform="translate(560,121)"/>
<path d="M0 0 C6.625 -0.25 6.625 -0.25 10 2 C5.94568308 3.15837626 3.78187881 2.83691257 0 1 C0 0.67 0 0.34 0 0 Z " fill="#070625" transform="translate(161,99)"/>
</svg>
